<mxfile host="app.diagrams.net" agent="Mozilla/5.0 (Macintosh; Intel Mac OS X 10_15_7) AppleWebKit/605.1.15 (KHTML, like Gecko) Version/16.6 Safari/605.1.15" version="26.0.6" pages="3">
  <diagram name="Loan" id="d3PvGegBoaP59mmrWB8Q">
    <mxGraphModel dx="954" dy="647" grid="1" gridSize="10" guides="1" tooltips="1" connect="1" arrows="1" fold="1" page="1" pageScale="1" pageWidth="850" pageHeight="1100" math="0" shadow="0">
      <root>
        <mxCell id="0" />
        <mxCell id="1" parent="0" />
        <mxCell id="0yS3i6Eiguuj7qUJ5TCT-23" style="edgeStyle=orthogonalEdgeStyle;rounded=0;orthogonalLoop=1;jettySize=auto;html=1;entryX=0;entryY=0.5;entryDx=0;entryDy=0;" edge="1" parent="1" source="0yS3i6Eiguuj7qUJ5TCT-17" target="0yS3i6Eiguuj7qUJ5TCT-6">
          <mxGeometry relative="1" as="geometry" />
        </mxCell>
        <mxCell id="0yS3i6Eiguuj7qUJ5TCT-17" value="" style="rounded=0;whiteSpace=wrap;html=1;glass=1;sketch=1;curveFitting=1;jiggle=2;" vertex="1" parent="1">
          <mxGeometry x="20" y="200" width="120" height="410" as="geometry" />
        </mxCell>
        <mxCell id="0yS3i6Eiguuj7qUJ5TCT-10" style="edgeStyle=orthogonalEdgeStyle;rounded=0;orthogonalLoop=1;jettySize=auto;html=1;entryX=0;entryY=0.5;entryDx=0;entryDy=0;" edge="1" parent="1" source="0yS3i6Eiguuj7qUJ5TCT-1" target="0yS3i6Eiguuj7qUJ5TCT-7">
          <mxGeometry relative="1" as="geometry" />
        </mxCell>
        <mxCell id="Kb8ktA41O8VAbsv550R8-2" style="edgeStyle=orthogonalEdgeStyle;rounded=0;orthogonalLoop=1;jettySize=auto;html=1;" edge="1" parent="1" source="0yS3i6Eiguuj7qUJ5TCT-1">
          <mxGeometry relative="1" as="geometry">
            <mxPoint x="420" y="530" as="targetPoint" />
          </mxGeometry>
        </mxCell>
        <mxCell id="0yS3i6Eiguuj7qUJ5TCT-1" value="" style="rounded=0;whiteSpace=wrap;html=1;sketch=1;curveFitting=1;jiggle=2;glass=1;" vertex="1" parent="1">
          <mxGeometry x="345" y="200" width="150" height="300" as="geometry" />
        </mxCell>
        <mxCell id="0yS3i6Eiguuj7qUJ5TCT-2" value="Pagamentos&lt;div&gt;&lt;br&gt;&lt;/div&gt;" style="aspect=fixed;sketch=0;html=1;dashed=0;whitespace=wrap;verticalLabelPosition=bottom;verticalAlign=top;fillColor=#2875E2;strokeColor=#ffffff;points=[[0.005,0.63,0],[0.1,0.2,0],[0.9,0.2,0],[0.5,0,0],[0.995,0.63,0],[0.72,0.99,0],[0.5,1,0],[0.28,0.99,0]];shape=mxgraph.kubernetes.icon2;kubernetesLabel=1;prIcon=api" vertex="1" parent="1">
          <mxGeometry x="395" y="420" width="50" height="48" as="geometry" />
        </mxCell>
        <mxCell id="0yS3i6Eiguuj7qUJ5TCT-3" value="Cadastro" style="aspect=fixed;sketch=0;html=1;dashed=0;whitespace=wrap;verticalLabelPosition=bottom;verticalAlign=top;fillColor=#2875E2;strokeColor=#ffffff;points=[[0.005,0.63,0],[0.1,0.2,0],[0.9,0.2,0],[0.5,0,0],[0.995,0.63,0],[0.72,0.99,0],[0.5,1,0],[0.28,0.99,0]];shape=mxgraph.kubernetes.icon2;kubernetesLabel=1;prIcon=api" vertex="1" parent="1">
          <mxGeometry x="395" y="220" width="50" height="48" as="geometry" />
        </mxCell>
        <mxCell id="0yS3i6Eiguuj7qUJ5TCT-4" value="Catalogo" style="aspect=fixed;sketch=0;html=1;dashed=0;whitespace=wrap;verticalLabelPosition=bottom;verticalAlign=top;fillColor=#2875E2;strokeColor=#ffffff;points=[[0.005,0.63,0],[0.1,0.2,0],[0.9,0.2,0],[0.5,0,0],[0.995,0.63,0],[0.72,0.99,0],[0.5,1,0],[0.28,0.99,0]];shape=mxgraph.kubernetes.icon2;kubernetesLabel=1;prIcon=api" vertex="1" parent="1">
          <mxGeometry x="395" y="320" width="50" height="48" as="geometry" />
        </mxCell>
        <mxCell id="lGNfVka37AUldrp3IUt5-2" style="edgeStyle=orthogonalEdgeStyle;rounded=0;orthogonalLoop=1;jettySize=auto;html=1;entryX=-0.02;entryY=0.683;entryDx=0;entryDy=0;entryPerimeter=0;" edge="1" parent="1" source="0yS3i6Eiguuj7qUJ5TCT-6" target="0yS3i6Eiguuj7qUJ5TCT-1">
          <mxGeometry relative="1" as="geometry">
            <mxPoint x="330" y="405" as="targetPoint" />
          </mxGeometry>
        </mxCell>
        <mxCell id="0yS3i6Eiguuj7qUJ5TCT-6" value="" style="rounded=0;whiteSpace=wrap;html=1;glass=1;sketch=1;curveFitting=1;jiggle=2;" vertex="1" parent="1">
          <mxGeometry x="180" y="200" width="120" height="410" as="geometry" />
        </mxCell>
        <mxCell id="0yS3i6Eiguuj7qUJ5TCT-7" value="" style="rounded=0;whiteSpace=wrap;html=1;glass=1;sketch=1;curveFitting=1;jiggle=2;" vertex="1" parent="1">
          <mxGeometry x="560" y="211" width="310" height="100" as="geometry" />
        </mxCell>
        <mxCell id="0yS3i6Eiguuj7qUJ5TCT-8" value="Authentication" style="aspect=fixed;sketch=0;html=1;dashed=0;whitespace=wrap;verticalLabelPosition=bottom;verticalAlign=top;fillColor=#2875E2;strokeColor=#ffffff;points=[[0.005,0.63,0],[0.1,0.2,0],[0.9,0.2,0],[0.5,0,0],[0.995,0.63,0],[0.72,0.99,0],[0.5,1,0],[0.28,0.99,0]];shape=mxgraph.kubernetes.icon2;kubernetesLabel=1;prIcon=api" vertex="1" parent="1">
          <mxGeometry x="215" y="350" width="50" height="48" as="geometry" />
        </mxCell>
        <mxCell id="0yS3i6Eiguuj7qUJ5TCT-12" value="Receita Federal" style="sketch=0;points=[[0,0,0],[0.25,0,0],[0.5,0,0],[0.75,0,0],[1,0,0],[0,1,0],[0.25,1,0],[0.5,1,0],[0.75,1,0],[1,1,0],[0,0.25,0],[0,0.5,0],[0,0.75,0],[1,0.25,0],[1,0.5,0],[1,0.75,0]];outlineConnect=0;fontColor=#232F3E;fillColor=#E7157B;strokeColor=#ffffff;dashed=0;verticalLabelPosition=bottom;verticalAlign=top;align=center;html=1;fontSize=12;fontStyle=0;aspect=fixed;shape=mxgraph.aws4.resourceIcon;resIcon=mxgraph.aws4.application_integration;" vertex="1" parent="1">
          <mxGeometry x="600" y="231" width="48" height="48" as="geometry" />
        </mxCell>
        <mxCell id="0yS3i6Eiguuj7qUJ5TCT-13" value="Docs" style="sketch=0;points=[[0,0,0],[0.25,0,0],[0.5,0,0],[0.75,0,0],[1,0,0],[0,1,0],[0.25,1,0],[0.5,1,0],[0.75,1,0],[1,1,0],[0,0.25,0],[0,0.5,0],[0,0.75,0],[1,0.25,0],[1,0.5,0],[1,0.75,0]];outlineConnect=0;fontColor=#232F3E;fillColor=#E7157B;strokeColor=#ffffff;dashed=0;verticalLabelPosition=bottom;verticalAlign=top;align=center;html=1;fontSize=12;fontStyle=0;aspect=fixed;shape=mxgraph.aws4.resourceIcon;resIcon=mxgraph.aws4.application_integration;" vertex="1" parent="1">
          <mxGeometry x="690" y="231" width="48" height="48" as="geometry" />
        </mxCell>
        <mxCell id="0yS3i6Eiguuj7qUJ5TCT-14" value="Titulos-Protesto" style="sketch=0;points=[[0,0,0],[0.25,0,0],[0.5,0,0],[0.75,0,0],[1,0,0],[0,1,0],[0.25,1,0],[0.5,1,0],[0.75,1,0],[1,1,0],[0,0.25,0],[0,0.5,0],[0,0.75,0],[1,0.25,0],[1,0.5,0],[1,0.75,0]];outlineConnect=0;fontColor=#232F3E;fillColor=#E7157B;strokeColor=#ffffff;dashed=0;verticalLabelPosition=bottom;verticalAlign=top;align=center;html=1;fontSize=12;fontStyle=0;aspect=fixed;shape=mxgraph.aws4.resourceIcon;resIcon=mxgraph.aws4.application_integration;" vertex="1" parent="1">
          <mxGeometry x="780" y="231" width="48" height="48" as="geometry" />
        </mxCell>
        <mxCell id="0yS3i6Eiguuj7qUJ5TCT-15" value="" style="rounded=0;whiteSpace=wrap;html=1;glass=1;sketch=1;curveFitting=1;jiggle=2;" vertex="1" parent="1">
          <mxGeometry x="345" y="534" width="154" height="75" as="geometry" />
        </mxCell>
        <mxCell id="0yS3i6Eiguuj7qUJ5TCT-18" value="Mobile Client" style="html=1;verticalLabelPosition=bottom;align=center;labelBackgroundColor=#ffffff;verticalAlign=top;strokeWidth=2;strokeColor=#0080F0;shadow=0;dashed=0;shape=mxgraph.ios7.icons.smartphone;" vertex="1" parent="1">
          <mxGeometry x="66" y="359" width="30" height="41" as="geometry" />
        </mxCell>
        <mxCell id="0yS3i6Eiguuj7qUJ5TCT-21" value="" style="sketch=0;outlineConnect=0;fontColor=#232F3E;gradientColor=none;fillColor=#C925D1;strokeColor=none;dashed=0;verticalLabelPosition=bottom;verticalAlign=top;align=center;html=1;fontSize=12;fontStyle=0;aspect=fixed;pointerEvents=1;shape=mxgraph.aws4.cache_node;" vertex="1" parent="1">
          <mxGeometry x="398.75" y="548.25" width="46.5" height="46.5" as="geometry" />
        </mxCell>
        <mxCell id="0yS3i6Eiguuj7qUJ5TCT-24" value="" style="rounded=0;whiteSpace=wrap;html=1;glass=1;sketch=1;curveFitting=1;jiggle=2;" vertex="1" parent="1">
          <mxGeometry x="560" y="409" width="310" height="80" as="geometry" />
        </mxCell>
        <mxCell id="0yS3i6Eiguuj7qUJ5TCT-25" value="" style="sketch=0;outlineConnect=0;fontColor=#232F3E;gradientColor=none;fillColor=#C925D1;strokeColor=none;dashed=0;verticalLabelPosition=bottom;verticalAlign=top;align=center;html=1;fontSize=12;fontStyle=0;aspect=fixed;pointerEvents=1;shape=mxgraph.aws4.rds_instance;" vertex="1" parent="1">
          <mxGeometry x="694" y="423" width="48" height="48" as="geometry" />
        </mxCell>
        <mxCell id="Gwiv0Ow5R3xQQGOCr6UH-1" style="edgeStyle=orthogonalEdgeStyle;rounded=0;orthogonalLoop=1;jettySize=auto;html=1;entryX=0.01;entryY=0.375;entryDx=0;entryDy=0;entryPerimeter=0;" edge="1" parent="1" source="0yS3i6Eiguuj7qUJ5TCT-1" target="0yS3i6Eiguuj7qUJ5TCT-24">
          <mxGeometry relative="1" as="geometry" />
        </mxCell>
        <mxCell id="Acx832eyxfbnLxTS1rGt-1" value="EKS" style="text;html=1;align=center;verticalAlign=middle;resizable=0;points=[];autosize=1;strokeColor=none;fillColor=none;" vertex="1" parent="1">
          <mxGeometry x="333" y="179" width="50" height="30" as="geometry" />
        </mxCell>
        <mxCell id="UwG-nBTdUIX3p-NsXCUb-1" value="External Service" style="text;html=1;align=center;verticalAlign=middle;resizable=0;points=[];autosize=1;strokeColor=none;fillColor=none;" vertex="1" parent="1">
          <mxGeometry x="550" y="181" width="110" height="30" as="geometry" />
        </mxCell>
        <mxCell id="UwG-nBTdUIX3p-NsXCUb-2" value="RDS" style="text;html=1;align=center;verticalAlign=middle;resizable=0;points=[];autosize=1;strokeColor=none;fillColor=none;" vertex="1" parent="1">
          <mxGeometry x="550" y="379" width="50" height="30" as="geometry" />
        </mxCell>
      </root>
    </mxGraphModel>
  </diagram>
  <diagram id="_Lp3O1-3YznJiom1-Lf2" name="Authentication">
    <mxGraphModel dx="1804" dy="1747" grid="1" gridSize="10" guides="1" tooltips="1" connect="1" arrows="1" fold="1" page="1" pageScale="1" pageWidth="850" pageHeight="1100" math="0" shadow="0">
      <root>
        <mxCell id="0" />
        <mxCell id="1" parent="0" />
        <mxCell id="kQLO0mwIo134QaP4opeq-4" style="edgeStyle=orthogonalEdgeStyle;rounded=0;orthogonalLoop=1;jettySize=auto;html=1;entryX=0;entryY=0.5;entryDx=0;entryDy=0;curved=1;" edge="1" parent="1" target="nWh7uLibPOo8iIUXTlET-1">
          <mxGeometry relative="1" as="geometry">
            <mxPoint x="-120" y="236.5" as="sourcePoint" />
          </mxGeometry>
        </mxCell>
        <mxCell id="kQLO0mwIo134QaP4opeq-19" style="edgeStyle=orthogonalEdgeStyle;rounded=0;orthogonalLoop=1;jettySize=auto;html=1;curved=1;" edge="1" parent="1" source="nWh7uLibPOo8iIUXTlET-1" target="kQLO0mwIo134QaP4opeq-12">
          <mxGeometry relative="1" as="geometry">
            <Array as="points">
              <mxPoint x="40" y="480" />
            </Array>
          </mxGeometry>
        </mxCell>
        <mxCell id="z9kWeucjn7KZHgfKlQD9-3" style="edgeStyle=orthogonalEdgeStyle;rounded=0;orthogonalLoop=1;jettySize=auto;html=1;entryX=0;entryY=0.5;entryDx=0;entryDy=0;" edge="1" parent="1" source="nWh7uLibPOo8iIUXTlET-1" target="kQLO0mwIo134QaP4opeq-9">
          <mxGeometry relative="1" as="geometry" />
        </mxCell>
        <mxCell id="nWh7uLibPOo8iIUXTlET-1" value="" style="rounded=0;whiteSpace=wrap;html=1;glass=1;sketch=1;curveFitting=1;jiggle=2;" vertex="1" parent="1">
          <mxGeometry x="-60" y="80" width="130" height="310" as="geometry" />
        </mxCell>
        <mxCell id="nWh7uLibPOo8iIUXTlET-2" value="" style="aspect=fixed;sketch=0;html=1;dashed=0;whitespace=wrap;verticalLabelPosition=bottom;verticalAlign=top;fillColor=#2875E2;strokeColor=#ffffff;points=[[0.005,0.63,0],[0.1,0.2,0],[0.9,0.2,0],[0.5,0,0],[0.995,0.63,0],[0.72,0.99,0],[0.5,1,0],[0.28,0.99,0]];shape=mxgraph.kubernetes.icon2;kubernetesLabel=1;prIcon=api" vertex="1" parent="1">
          <mxGeometry x="-20" y="211" width="50" height="48" as="geometry" />
        </mxCell>
        <mxCell id="kQLO0mwIo134QaP4opeq-1" value="" style="rounded=0;whiteSpace=wrap;html=1;glass=1;sketch=1;curveFitting=1;jiggle=2;" vertex="1" parent="1">
          <mxGeometry x="160" y="-50" width="130" height="110" as="geometry" />
        </mxCell>
        <mxCell id="kQLO0mwIo134QaP4opeq-2" value="Cognito" style="sketch=0;points=[[0,0,0],[0.25,0,0],[0.5,0,0],[0.75,0,0],[1,0,0],[0,1,0],[0.25,1,0],[0.5,1,0],[0.75,1,0],[1,1,0],[0,0.25,0],[0,0.5,0],[0,0.75,0],[1,0.25,0],[1,0.5,0],[1,0.75,0]];outlineConnect=0;fontColor=#232F3E;fillColor=#DD344C;strokeColor=#ffffff;dashed=0;verticalLabelPosition=bottom;verticalAlign=top;align=center;html=1;fontSize=12;fontStyle=0;aspect=fixed;shape=mxgraph.aws4.resourceIcon;resIcon=mxgraph.aws4.cognito;" vertex="1" parent="1">
          <mxGeometry x="202" y="-20" width="44" height="44" as="geometry" />
        </mxCell>
        <mxCell id="kQLO0mwIo134QaP4opeq-9" value="" style="rounded=0;whiteSpace=wrap;html=1;glass=1;sketch=1;curveFitting=1;jiggle=2;" vertex="1" parent="1">
          <mxGeometry x="160" y="80" width="130" height="310" as="geometry" />
        </mxCell>
        <mxCell id="kQLO0mwIo134QaP4opeq-10" value="Lambda Authorizer" style="outlineConnect=0;dashed=0;verticalLabelPosition=bottom;verticalAlign=top;align=center;html=1;shape=mxgraph.aws3.lambda_function;fillColor=#F58534;gradientColor=none;" vertex="1" parent="1">
          <mxGeometry x="207" y="130" width="39" height="42" as="geometry" />
        </mxCell>
        <mxCell id="kQLO0mwIo134QaP4opeq-11" value="Lambda Authorizer" style="outlineConnect=0;dashed=0;verticalLabelPosition=bottom;verticalAlign=top;align=center;html=1;shape=mxgraph.aws3.lambda_function;fillColor=#F58534;gradientColor=none;" vertex="1" parent="1">
          <mxGeometry x="205.5" y="251" width="39" height="42" as="geometry" />
        </mxCell>
        <mxCell id="kQLO0mwIo134QaP4opeq-12" value="" style="rounded=0;whiteSpace=wrap;html=1;glass=1;sketch=1;curveFitting=1;jiggle=2;" vertex="1" parent="1">
          <mxGeometry x="162" y="440" width="128" height="120" as="geometry" />
        </mxCell>
        <mxCell id="kQLO0mwIo134QaP4opeq-13" value="Protected&amp;nbsp;&lt;div&gt;Backend&lt;/div&gt;" style="image;aspect=fixed;perimeter=ellipsePerimeter;html=1;align=center;shadow=0;dashed=0;fontColor=#000000;labelBackgroundColor=default;fontSize=12;spacingTop=3;image=img/lib/ibm/infrastructure/mobile_backend.svg;" vertex="1" parent="1">
          <mxGeometry x="202.5" y="460" width="50" height="50" as="geometry" />
        </mxCell>
        <mxCell id="kQLO0mwIo134QaP4opeq-17" style="edgeStyle=orthogonalEdgeStyle;rounded=0;orthogonalLoop=1;jettySize=auto;html=1;entryX=0;entryY=0.409;entryDx=0;entryDy=0;entryPerimeter=0;curved=1;" edge="1" parent="1" source="nWh7uLibPOo8iIUXTlET-1" target="kQLO0mwIo134QaP4opeq-1">
          <mxGeometry relative="1" as="geometry">
            <Array as="points">
              <mxPoint x="40" y="115" />
            </Array>
          </mxGeometry>
        </mxCell>
        <mxCell id="z9kWeucjn7KZHgfKlQD9-1" value="" style="rounded=0;whiteSpace=wrap;html=1;glass=1;sketch=1;curveFitting=1;jiggle=2;" vertex="1" parent="1">
          <mxGeometry x="-250" y="80" width="120" height="310" as="geometry" />
        </mxCell>
        <mxCell id="z9kWeucjn7KZHgfKlQD9-2" value="Mobile Client" style="html=1;verticalLabelPosition=bottom;align=center;labelBackgroundColor=#ffffff;verticalAlign=top;strokeWidth=2;strokeColor=#0080F0;shadow=0;dashed=0;shape=mxgraph.ios7.icons.smartphone;" vertex="1" parent="1">
          <mxGeometry x="-205" y="210" width="30" height="41" as="geometry" />
        </mxCell>
      </root>
    </mxGraphModel>
  </diagram>
  <diagram id="h5h2E19gc17uetY6edUs" name="Circuit Breaker">
    <mxGraphModel dx="954" dy="647" grid="1" gridSize="10" guides="1" tooltips="1" connect="1" arrows="1" fold="1" page="1" pageScale="1" pageWidth="850" pageHeight="1100" math="0" shadow="0">
      <root>
        <mxCell id="0" />
        <mxCell id="1" parent="0" />
        <mxCell id="22KGmZaGN59VydztRjyv-12" style="edgeStyle=orthogonalEdgeStyle;rounded=0;orthogonalLoop=1;jettySize=auto;html=1;" edge="1" parent="1" source="CmwbrR9aCWvnCtvgwPzE-2" target="22KGmZaGN59VydztRjyv-1">
          <mxGeometry relative="1" as="geometry" />
        </mxCell>
        <mxCell id="CmwbrR9aCWvnCtvgwPzE-2" value="Mobile client" style="sketch=0;outlineConnect=0;fontColor=#232F3E;gradientColor=none;strokeColor=#232F3E;fillColor=#ffffff;dashed=0;verticalLabelPosition=bottom;verticalAlign=top;align=center;html=1;fontSize=12;fontStyle=0;aspect=fixed;shape=mxgraph.aws4.resourceIcon;resIcon=mxgraph.aws4.mobile_client;" vertex="1" parent="1">
          <mxGeometry x="50" y="250" width="60" height="60" as="geometry" />
        </mxCell>
        <mxCell id="22KGmZaGN59VydztRjyv-11" style="edgeStyle=orthogonalEdgeStyle;rounded=0;orthogonalLoop=1;jettySize=auto;html=1;entryX=0;entryY=0.5;entryDx=0;entryDy=0;" edge="1" parent="1" source="22KGmZaGN59VydztRjyv-1" target="22KGmZaGN59VydztRjyv-2">
          <mxGeometry relative="1" as="geometry" />
        </mxCell>
        <mxCell id="22KGmZaGN59VydztRjyv-1" value="" style="aspect=fixed;sketch=0;html=1;dashed=0;whitespace=wrap;verticalLabelPosition=bottom;verticalAlign=top;fillColor=#2875E2;strokeColor=#ffffff;points=[[0.005,0.63,0],[0.1,0.2,0],[0.9,0.2,0],[0.5,0,0],[0.995,0.63,0],[0.72,0.99,0],[0.5,1,0],[0.28,0.99,0]];shape=mxgraph.kubernetes.icon2;kubernetesLabel=1;prIcon=api" vertex="1" parent="1">
          <mxGeometry x="190" y="256" width="50" height="48" as="geometry" />
        </mxCell>
        <mxCell id="22KGmZaGN59VydztRjyv-10" style="edgeStyle=orthogonalEdgeStyle;rounded=0;orthogonalLoop=1;jettySize=auto;html=1;entryX=0.25;entryY=0;entryDx=0;entryDy=0;" edge="1" parent="1" source="22KGmZaGN59VydztRjyv-2" target="22KGmZaGN59VydztRjyv-3">
          <mxGeometry relative="1" as="geometry">
            <Array as="points">
              <mxPoint x="365" y="230" />
              <mxPoint x="500" y="230" />
            </Array>
          </mxGeometry>
        </mxCell>
        <mxCell id="22KGmZaGN59VydztRjyv-2" value="Loan Service" style="rounded=1;whiteSpace=wrap;html=1;fillColor=#dae8fc;strokeColor=#6c8ebf;" vertex="1" parent="1">
          <mxGeometry x="305" y="260" width="120" height="40" as="geometry" />
        </mxCell>
        <mxCell id="22KGmZaGN59VydztRjyv-6" style="edgeStyle=orthogonalEdgeStyle;rounded=0;orthogonalLoop=1;jettySize=auto;html=1;" edge="1" parent="1" source="22KGmZaGN59VydztRjyv-3" target="22KGmZaGN59VydztRjyv-4">
          <mxGeometry relative="1" as="geometry">
            <Array as="points">
              <mxPoint x="530" y="230" />
              <mxPoint x="710" y="230" />
            </Array>
          </mxGeometry>
        </mxCell>
        <mxCell id="22KGmZaGN59VydztRjyv-9" style="edgeStyle=orthogonalEdgeStyle;rounded=0;orthogonalLoop=1;jettySize=auto;html=1;entryX=0.5;entryY=1;entryDx=0;entryDy=0;exitX=0.25;exitY=1;exitDx=0;exitDy=0;" edge="1" parent="1" source="22KGmZaGN59VydztRjyv-3" target="22KGmZaGN59VydztRjyv-2">
          <mxGeometry relative="1" as="geometry">
            <Array as="points">
              <mxPoint x="500" y="330" />
              <mxPoint x="365" y="330" />
            </Array>
          </mxGeometry>
        </mxCell>
        <mxCell id="22KGmZaGN59VydztRjyv-3" value="Circuit Breaker&lt;div&gt;Closed&lt;/div&gt;" style="rounded=1;whiteSpace=wrap;html=1;fillColor=#ffe6cc;strokeColor=#d79b00;" vertex="1" parent="1">
          <mxGeometry x="470" y="260" width="120" height="40" as="geometry" />
        </mxCell>
        <mxCell id="22KGmZaGN59VydztRjyv-7" style="edgeStyle=orthogonalEdgeStyle;rounded=0;orthogonalLoop=1;jettySize=auto;html=1;entryX=0.5;entryY=1;entryDx=0;entryDy=0;" edge="1" parent="1" source="22KGmZaGN59VydztRjyv-4" target="22KGmZaGN59VydztRjyv-3">
          <mxGeometry relative="1" as="geometry">
            <Array as="points">
              <mxPoint x="710" y="330" />
              <mxPoint x="530" y="330" />
            </Array>
          </mxGeometry>
        </mxCell>
        <mxCell id="22KGmZaGN59VydztRjyv-4" value="External Service" style="rounded=1;whiteSpace=wrap;html=1;fillColor=#d5e8d4;strokeColor=#82b366;" vertex="1" parent="1">
          <mxGeometry x="640" y="260" width="120" height="40" as="geometry" />
        </mxCell>
        <mxCell id="22KGmZaGN59VydztRjyv-14" style="edgeStyle=orthogonalEdgeStyle;rounded=0;orthogonalLoop=1;jettySize=auto;html=1;" edge="1" parent="1" source="22KGmZaGN59VydztRjyv-15" target="22KGmZaGN59VydztRjyv-17">
          <mxGeometry relative="1" as="geometry" />
        </mxCell>
        <mxCell id="22KGmZaGN59VydztRjyv-15" value="Mobile client" style="sketch=0;outlineConnect=0;fontColor=#232F3E;gradientColor=none;strokeColor=#232F3E;fillColor=#ffffff;dashed=0;verticalLabelPosition=bottom;verticalAlign=top;align=center;html=1;fontSize=12;fontStyle=0;aspect=fixed;shape=mxgraph.aws4.resourceIcon;resIcon=mxgraph.aws4.mobile_client;" vertex="1" parent="1">
          <mxGeometry x="50" y="400" width="60" height="60" as="geometry" />
        </mxCell>
        <mxCell id="22KGmZaGN59VydztRjyv-16" style="edgeStyle=orthogonalEdgeStyle;rounded=0;orthogonalLoop=1;jettySize=auto;html=1;entryX=0;entryY=0.5;entryDx=0;entryDy=0;" edge="1" parent="1" source="22KGmZaGN59VydztRjyv-17" target="22KGmZaGN59VydztRjyv-19">
          <mxGeometry relative="1" as="geometry" />
        </mxCell>
        <mxCell id="22KGmZaGN59VydztRjyv-17" value="" style="aspect=fixed;sketch=0;html=1;dashed=0;whitespace=wrap;verticalLabelPosition=bottom;verticalAlign=top;fillColor=#2875E2;strokeColor=#ffffff;points=[[0.005,0.63,0],[0.1,0.2,0],[0.9,0.2,0],[0.5,0,0],[0.995,0.63,0],[0.72,0.99,0],[0.5,1,0],[0.28,0.99,0]];shape=mxgraph.kubernetes.icon2;kubernetesLabel=1;prIcon=api" vertex="1" parent="1">
          <mxGeometry x="190" y="406" width="50" height="48" as="geometry" />
        </mxCell>
        <mxCell id="22KGmZaGN59VydztRjyv-18" style="edgeStyle=orthogonalEdgeStyle;rounded=0;orthogonalLoop=1;jettySize=auto;html=1;entryX=0.25;entryY=0;entryDx=0;entryDy=0;" edge="1" parent="1" source="22KGmZaGN59VydztRjyv-19" target="22KGmZaGN59VydztRjyv-22">
          <mxGeometry relative="1" as="geometry">
            <Array as="points">
              <mxPoint x="365" y="380" />
              <mxPoint x="500" y="380" />
            </Array>
          </mxGeometry>
        </mxCell>
        <mxCell id="22KGmZaGN59VydztRjyv-19" value="Loan Service" style="rounded=1;whiteSpace=wrap;html=1;fillColor=#dae8fc;strokeColor=#6c8ebf;" vertex="1" parent="1">
          <mxGeometry x="305" y="410" width="120" height="40" as="geometry" />
        </mxCell>
        <mxCell id="22KGmZaGN59VydztRjyv-20" style="edgeStyle=orthogonalEdgeStyle;rounded=0;orthogonalLoop=1;jettySize=auto;html=1;" edge="1" parent="1" source="22KGmZaGN59VydztRjyv-22" target="22KGmZaGN59VydztRjyv-24">
          <mxGeometry relative="1" as="geometry">
            <Array as="points">
              <mxPoint x="530" y="380" />
              <mxPoint x="710" y="380" />
            </Array>
          </mxGeometry>
        </mxCell>
        <mxCell id="22KGmZaGN59VydztRjyv-21" style="edgeStyle=orthogonalEdgeStyle;rounded=0;orthogonalLoop=1;jettySize=auto;html=1;entryX=0.5;entryY=1;entryDx=0;entryDy=0;exitX=0.25;exitY=1;exitDx=0;exitDy=0;dashed=1;fillColor=#f8cecc;strokeColor=#b85450;strokeWidth=2;" edge="1" parent="1" source="22KGmZaGN59VydztRjyv-22" target="22KGmZaGN59VydztRjyv-19">
          <mxGeometry relative="1" as="geometry">
            <Array as="points">
              <mxPoint x="500" y="480" />
              <mxPoint x="365" y="480" />
            </Array>
          </mxGeometry>
        </mxCell>
        <mxCell id="22KGmZaGN59VydztRjyv-22" value="Circuit Breaker&lt;div&gt;Closed&lt;/div&gt;" style="rounded=1;whiteSpace=wrap;html=1;fillColor=#ffe6cc;strokeColor=#d79b00;" vertex="1" parent="1">
          <mxGeometry x="470" y="410" width="120" height="40" as="geometry" />
        </mxCell>
        <mxCell id="22KGmZaGN59VydztRjyv-23" style="edgeStyle=orthogonalEdgeStyle;rounded=0;orthogonalLoop=1;jettySize=auto;html=1;entryX=0.5;entryY=1;entryDx=0;entryDy=0;fillColor=#f8cecc;strokeColor=#b85450;dashed=1;strokeWidth=2;" edge="1" parent="1" source="22KGmZaGN59VydztRjyv-24" target="22KGmZaGN59VydztRjyv-22">
          <mxGeometry relative="1" as="geometry">
            <Array as="points">
              <mxPoint x="710" y="480" />
              <mxPoint x="530" y="480" />
            </Array>
          </mxGeometry>
        </mxCell>
        <mxCell id="22KGmZaGN59VydztRjyv-24" value="External Service" style="rounded=1;whiteSpace=wrap;html=1;fillColor=#d5e8d4;strokeColor=#82b366;" vertex="1" parent="1">
          <mxGeometry x="640" y="410" width="120" height="40" as="geometry" />
        </mxCell>
        <mxCell id="22KGmZaGN59VydztRjyv-25" style="edgeStyle=orthogonalEdgeStyle;rounded=0;orthogonalLoop=1;jettySize=auto;html=1;" edge="1" parent="1" source="22KGmZaGN59VydztRjyv-26" target="22KGmZaGN59VydztRjyv-28">
          <mxGeometry relative="1" as="geometry" />
        </mxCell>
        <mxCell id="22KGmZaGN59VydztRjyv-26" value="Mobile client" style="sketch=0;outlineConnect=0;fontColor=#232F3E;gradientColor=none;strokeColor=#232F3E;fillColor=#ffffff;dashed=0;verticalLabelPosition=bottom;verticalAlign=top;align=center;html=1;fontSize=12;fontStyle=0;aspect=fixed;shape=mxgraph.aws4.resourceIcon;resIcon=mxgraph.aws4.mobile_client;" vertex="1" parent="1">
          <mxGeometry x="50" y="550" width="60" height="60" as="geometry" />
        </mxCell>
        <mxCell id="22KGmZaGN59VydztRjyv-27" style="edgeStyle=orthogonalEdgeStyle;rounded=0;orthogonalLoop=1;jettySize=auto;html=1;entryX=0;entryY=0.5;entryDx=0;entryDy=0;" edge="1" parent="1" source="22KGmZaGN59VydztRjyv-28" target="22KGmZaGN59VydztRjyv-30">
          <mxGeometry relative="1" as="geometry" />
        </mxCell>
        <mxCell id="22KGmZaGN59VydztRjyv-28" value="" style="aspect=fixed;sketch=0;html=1;dashed=0;whitespace=wrap;verticalLabelPosition=bottom;verticalAlign=top;fillColor=#2875E2;strokeColor=#ffffff;points=[[0.005,0.63,0],[0.1,0.2,0],[0.9,0.2,0],[0.5,0,0],[0.995,0.63,0],[0.72,0.99,0],[0.5,1,0],[0.28,0.99,0]];shape=mxgraph.kubernetes.icon2;kubernetesLabel=1;prIcon=api" vertex="1" parent="1">
          <mxGeometry x="190" y="556" width="50" height="48" as="geometry" />
        </mxCell>
        <mxCell id="22KGmZaGN59VydztRjyv-29" style="edgeStyle=orthogonalEdgeStyle;rounded=0;orthogonalLoop=1;jettySize=auto;html=1;entryX=0.25;entryY=0;entryDx=0;entryDy=0;" edge="1" parent="1" source="22KGmZaGN59VydztRjyv-30" target="22KGmZaGN59VydztRjyv-33">
          <mxGeometry relative="1" as="geometry">
            <Array as="points">
              <mxPoint x="365" y="530" />
              <mxPoint x="500" y="530" />
            </Array>
          </mxGeometry>
        </mxCell>
        <mxCell id="22KGmZaGN59VydztRjyv-30" value="Loan Service" style="rounded=1;whiteSpace=wrap;html=1;fillColor=#dae8fc;strokeColor=#6c8ebf;" vertex="1" parent="1">
          <mxGeometry x="305" y="560" width="120" height="40" as="geometry" />
        </mxCell>
        <mxCell id="22KGmZaGN59VydztRjyv-32" style="edgeStyle=orthogonalEdgeStyle;rounded=0;orthogonalLoop=1;jettySize=auto;html=1;entryX=0.5;entryY=1;entryDx=0;entryDy=0;exitX=0.25;exitY=1;exitDx=0;exitDy=0;dashed=1;fillColor=#f8cecc;strokeColor=#b85450;strokeWidth=2;" edge="1" parent="1" source="22KGmZaGN59VydztRjyv-33" target="22KGmZaGN59VydztRjyv-30">
          <mxGeometry relative="1" as="geometry">
            <Array as="points">
              <mxPoint x="500" y="630" />
              <mxPoint x="365" y="630" />
            </Array>
          </mxGeometry>
        </mxCell>
        <mxCell id="22KGmZaGN59VydztRjyv-33" value="Circuit Breaker&lt;div&gt;Open&lt;/div&gt;" style="rounded=1;whiteSpace=wrap;html=1;fillColor=#ffe6cc;strokeColor=#d79b00;" vertex="1" parent="1">
          <mxGeometry x="470" y="560" width="120" height="40" as="geometry" />
        </mxCell>
        <mxCell id="22KGmZaGN59VydztRjyv-35" value="External Service" style="rounded=1;whiteSpace=wrap;html=1;fillColor=#d5e8d4;strokeColor=#82b366;" vertex="1" parent="1">
          <mxGeometry x="640" y="560" width="120" height="40" as="geometry" />
        </mxCell>
      </root>
    </mxGraphModel>
  </diagram>
</mxfile>
